<svg xmlns="http://www.w3.org/2000/svg" viewBox="0 0 570.58 419.57"><defs><style>.cls-1,.cls-2,.cls-3,.cls-4,.cls-5{fill:none;stroke:#000;stroke-miterlimit:10;}.cls-1{stroke-width:2px;}.cls-3,.cls-4,.cls-5{stroke-width:1.5px;}.cls-4{opacity:0.3;}.cls-5{opacity:0.1;}.cls-6{fill:#001034;}.cls-7{fill:#003;}</style></defs><g id="Layer_2" data-name="Layer 2"><g id="Layer_1-2" data-name="Layer 1"><circle class="cls-1" cx="261.55" cy="193.03" r="4.56"/><circle cx="184.18" cy="193.03" r="2.61"/><line class="cls-2" x1="184.18" y1="193.03" x2="256.99" y2="193.03"/><polyline class="cls-3" points="253.08 219.43 261.55 210.31 270.02 219.43"/><polyline class="cls-4" points="253.08 227.32 261.55 218.2 270.02 227.32"/><polyline class="cls-5" points="253.08 235.21 261.55 226.09 270.02 235.21"/><path d="M0,182.35l2.88-1a3.56,3.56,0,0,0,3.53,2.75c1.67,0,2.71-.6,2.71-1.5s-.91-1.25-2.71-1.75L5,180.46c-3-.86-4.47-2.28-4.47-4.65,0-2.6,2.32-4.43,5.74-4.43,3.09,0,5.63,1.57,6.13,4.5l-3,.77a2.91,2.91,0,0,0-3.14-2.36c-1.51,0-2.34.53-2.34,1.35,0,1,1,1.36,2.47,1.74l1.42.37c3.14.79,4.64,2.26,4.64,4.6,0,2.79-2.3,4.64-6.08,4.64C3.46,187,.84,185.68,0,182.35Z"/><path d="M24,179.42v7.29H20.85V180c0-1.29-.73-2-1.65-2a1.93,1.93,0,0,0-2,2.17v6.53H14.06V171.66h3.16v5.23a3.13,3.13,0,0,1,2.92-1.64A3.86,3.86,0,0,1,24,179.42Z"/><path d="M25.39,181.12a5.63,5.63,0,0,1,5.82-5.87,5.87,5.87,0,0,1,0,11.74A5.63,5.63,0,0,1,25.39,181.12Zm8.42,0c0-2-1.12-3.05-2.6-3.05s-2.56,1.08-2.56,3.05,1.1,3.08,2.56,3.08S33.81,183.1,33.81,181.12Z"/><path d="M45,175.25v3.4H43.72a2,2,0,0,0-2,2.26v5.8H38.54V175.56H41.7V177a2.89,2.89,0,0,1,2.71-1.77Z"/><path d="M53.59,182.33l2.66.94A5.14,5.14,0,0,1,51.09,187c-3.37,0-5.67-2.34-5.67-5.87s2.26-5.87,5.5-5.87,5.33,2.39,5.33,5.87c0,.22,0,.5,0,.71H48.64c.18,1.77,1,2.48,2.3,2.48A2.62,2.62,0,0,0,53.59,182.33Zm-4.86-2.6h4.32c-.3-1.36-1.07-2-2.13-2A2.1,2.1,0,0,0,48.73,179.73Z"/><path d="M61.93,171.66h10.7v3H65.3v2.92h6.41v2.89H65.3v3.31h7.33v3H61.93Z"/><path d="M84.93,175.56l-4,5.48L85,186.71H81.29l-2.23-3.09-2.26,3.09H73.12l4.11-5.63-4-5.52H77l2.13,2.94,2.15-2.94Z"/><path d="M84.62,181.12a5.56,5.56,0,0,1,5.68-5.87,5.24,5.24,0,0,1,5.4,4l-2.82,1c-.47-1.59-1.29-2.21-2.58-2.21s-2.41,1-2.41,3.07,1.16,3.08,2.41,3.08,2.11-.63,2.58-2.22l2.82,1a5.23,5.23,0,0,1-5.4,4A5.56,5.56,0,0,1,84.62,181.12Z"/><path d="M96.77,182.24v-6.68H100v6.49c0,1.5.78,2.15,1.81,2.15s1.8-.65,1.8-2.15v-6.49h3.19v6.68c0,3-2.15,4.75-5,4.75S96.77,185.21,96.77,182.24Z"/><path d="M115,175.25v3.4h-1.23a2,2,0,0,0-2,2.26v5.8h-3.16V175.56h3.16V177a2.89,2.89,0,0,1,2.71-1.77Z"/><path d="M115.45,183.23l2.51-.84a2.57,2.57,0,0,0,2.71,2.09c1.12,0,1.81-.33,1.81-.88s-.54-.8-1.79-1.1l-1.07-.26c-2.64-.64-3.78-1.72-3.78-3.55,0-2.06,1.8-3.41,4.62-3.41s4.62,1.41,4.9,3.61l-2.6.69a2.08,2.08,0,0,0-2.3-1.79c-1,0-1.66.37-1.66.84s.69.77,2,1.1l1.08.25c2.36.56,3.57,1.75,3.57,3.47,0,2.12-1.92,3.54-4.8,3.54C118.24,187,116,185.77,115.45,183.23Z"/><path d="M126.6,172.82a2,2,0,0,1,4,0,2,2,0,0,1-4,0Zm.39,2.74h3.16v11.15H127Z"/><path d="M131.63,181.12a5.84,5.84,0,1,1,5.83,5.87A5.64,5.64,0,0,1,131.63,181.12Zm8.43,0c0-2-1.12-3.05-2.6-3.05s-2.56,1.08-2.56,3.05,1.1,3.08,2.56,3.08S140.06,183.1,140.06,181.12Z"/><path d="M154.74,179.42v7.29h-3.16V180c0-1.29-.73-2-1.65-2a1.93,1.93,0,0,0-2,2.17v6.53h-3.16V175.56H148v1.33a3.13,3.13,0,0,1,2.92-1.64A3.86,3.86,0,0,1,154.74,179.42Z"/><path d="M156,183.23l2.51-.84a2.57,2.57,0,0,0,2.71,2.09c1.12,0,1.81-.33,1.81-.88s-.54-.8-1.79-1.1l-1.07-.26c-2.65-.64-3.79-1.72-3.79-3.55,0-2.06,1.81-3.41,4.63-3.41s4.62,1.41,4.9,3.61l-2.6.69a2.08,2.08,0,0,0-2.3-1.79c-1,0-1.66.37-1.66.84s.69.77,2,1.1l1.08.25c2.36.56,3.57,1.75,3.57,3.47,0,2.12-1.92,3.54-4.8,3.54C158.78,187,156.57,185.77,156,183.23Z"/><path d="M84,191.2h3.18l4.3,5.85,4.19-5.85h3.18v15.05H95.46v-9.76l-3.78,5.12h-.56l-3.81-5.12v9.76H84Z"/><path d="M110.85,199.22v7h-2.92v-1.07a3.87,3.87,0,0,1-3.23,1.35c-2.66,0-4.23-1.35-4.23-3.5s1.65-3.5,4.51-3.5a3.88,3.88,0,0,1,2.71.9v-.9c0-1.25-.67-1.92-2.06-1.92a2.32,2.32,0,0,0-2.28,1.64l-2.63-1.14a4.86,4.86,0,0,1,5-3.31C108.53,194.8,110.85,196.24,110.85,199.22Zm-3.1,3.77c0-.82-.79-1.29-2-1.29s-2,.47-2,1.29.8,1.29,2,1.29S107.75,203.8,107.75,203Z"/><path d="M122.65,199v7.28h-3.16v-6.72c0-1.3-.73-2-1.65-2a1.93,1.93,0,0,0-2,2.17v6.53H112.7V195.1h3.16v1.33a3.12,3.12,0,0,1,2.92-1.63A3.85,3.85,0,0,1,122.65,199Z"/><path d="M134.39,199.22v7h-2.93v-1.07a3.83,3.83,0,0,1-3.22,1.35c-2.67,0-4.24-1.35-4.24-3.5s1.66-3.5,4.52-3.5a3.9,3.9,0,0,1,2.71.9v-.9c0-1.25-.67-1.92-2.07-1.92a2.32,2.32,0,0,0-2.28,1.64l-2.62-1.14a4.86,4.86,0,0,1,5-3.31C132.06,194.8,134.39,196.24,134.39,199.22Zm-3.1,3.77c0-.82-.79-1.29-2-1.29s-2,.47-2,1.29.79,1.29,2,1.29S131.29,203.8,131.29,203Z"/><path d="M135.52,207.8a2.42,2.42,0,0,1,1.79-2.21,2.37,2.37,0,0,1-1.59-2.19,2.41,2.41,0,0,1,2-2.31,2.81,2.81,0,0,1-1.38-2.49c0-2.39,2.15-3.8,5.1-3.8a11.15,11.15,0,0,0,5.12-.76l.92,2.37a10.61,10.61,0,0,1-2,.6,2.23,2.23,0,0,1,1,2c0,2-2.13,3.29-5.23,3.29-1.16,0-2.6-.07-2.6.66s1.81.6,2.86.6h.65c3.48,0,5.31,1.36,5.31,3.38s-1.81,3.55-6,3.55C137.09,210.45,135.52,209.14,135.52,207.8Zm8.5-.58c0-.62-.67-1-2.54-1s-2.56.35-2.56,1,.69,1,2.56,1S144,207.85,144,207.22Zm-.63-8.64c0-.8-.6-1.36-1.93-1.36s-2,.56-2,1.36.64,1.31,2,1.31S143.39,199.37,143.39,198.58Z"/><path d="M156.08,201.87l2.66.94a5.14,5.14,0,0,1-5.16,3.72c-3.37,0-5.67-2.34-5.67-5.87s2.25-5.86,5.5-5.86,5.33,2.38,5.33,5.86c0,.22,0,.5,0,.71h-7.59c.17,1.77,1,2.48,2.3,2.48A2.62,2.62,0,0,0,156.08,201.87Zm-4.86-2.6h4.32c-.3-1.36-1.08-2-2.13-2A2.1,2.1,0,0,0,151.22,199.27Z"/><path d="M166.67,194.8v3.39h-1.22a2,2,0,0,0-2,2.26v5.8h-3.16V195.1h3.16v1.46a2.87,2.87,0,0,1,2.7-1.76Z"/><circle class="cls-1" cx="261.55" cy="248.18" r="4.56"/><circle cx="338.92" cy="248.18" r="2.61"/><line class="cls-2" x1="338.92" y1="248.18" x2="266.11" y2="248.18"/><polyline class="cls-3" points="253.08 274.58 261.55 265.46 270.02 274.58"/><polyline class="cls-4" points="253.08 282.47 261.55 273.36 270.02 282.47"/><polyline class="cls-5" points="253.08 290.37 261.55 281.25 270.02 290.37"/><path class="cls-6" d="M355.74,238.24l-1.31,3.63h-3.51l5.87-15.05h3.29L366,241.87h-3.59l-1.31-3.63Zm1-2.71h3.4l-1.7-4.69Z"/><path class="cls-6" d="M366,238.39l2.52-.84a2.56,2.56,0,0,0,2.7,2.08c1.12,0,1.81-.32,1.81-.88s-.54-.79-1.78-1.09l-1.08-.26c-2.64-.65-3.78-1.72-3.78-3.55,0-2.06,1.8-3.42,4.62-3.42s4.62,1.42,4.9,3.61l-2.6.69A2.07,2.07,0,0,0,371,233c-1,0-1.66.36-1.66.84s.69.77,2,1.09l1.07.26c2.37.56,3.57,1.74,3.57,3.46,0,2.13-1.91,3.55-4.8,3.55C368.81,242.15,366.59,240.92,366,238.39Z"/><path class="cls-6" d="M377,238.39l2.52-.84a2.56,2.56,0,0,0,2.71,2.08c1.11,0,1.8-.32,1.8-.88s-.54-.79-1.78-1.09l-1.08-.26c-2.64-.65-3.78-1.72-3.78-3.55,0-2.06,1.8-3.42,4.62-3.42s4.62,1.42,4.9,3.61l-2.6.69A2.07,2.07,0,0,0,382,233c-1,0-1.65.36-1.65.84s.68.77,2,1.09l1.07.26c2.37.56,3.57,1.74,3.57,3.46,0,2.13-1.91,3.55-4.79,3.55C379.75,242.15,377.53,240.92,377,238.39Z"/><path class="cls-6" d="M389.42,233.18h-2v-2.47h2v-2l3.16-1.66v3.7H395v2.47h-2.45v4.43c0,1,.41,1.55,1.25,1.55H395v2.71h-1.61c-2.52,0-4-1.55-4-4.13Z"/><path class="cls-6" d="M396,240a2.05,2.05,0,1,1,2.06,2.11A2,2,0,0,1,396,240Z"/><path class="cls-6" d="M404.57,237.51l2.88-1a3.57,3.57,0,0,0,3.53,2.75c1.68,0,2.71-.6,2.71-1.51s-.91-1.24-2.71-1.74l-1.4-.39c-3.05-.86-4.47-2.27-4.47-4.64,0-2.6,2.32-4.43,5.74-4.43,3.1,0,5.63,1.57,6.13,4.49l-3,.78a2.91,2.91,0,0,0-3.14-2.37c-1.5,0-2.34.54-2.34,1.36,0,1,1,1.35,2.47,1.74l1.42.36c3.14.8,4.64,2.26,4.64,4.61,0,2.79-2.3,4.64-6.08,4.64C408,242.15,405.41,240.84,404.57,237.51Z"/><path class="cls-6" d="M428.58,234.58v7.29h-3.16v-6.73c0-1.29-.73-2-1.65-2a1.94,1.94,0,0,0-2,2.17v6.54h-3.16V226.82h3.16v5.23a3.12,3.12,0,0,1,2.92-1.64A3.86,3.86,0,0,1,428.58,234.58Z"/><path class="cls-6" d="M430,236.28a5.84,5.84,0,1,1,5.82,5.87A5.63,5.63,0,0,1,430,236.28Zm8.43,0c0-2-1.12-3.05-2.61-3.05s-2.55,1.07-2.55,3.05,1.09,3.07,2.55,3.07S438.39,238.26,438.39,236.28Z"/><path class="cls-6" d="M449.52,230.41v3.4h-1.23a2,2,0,0,0-2,2.26v5.8h-3.16V230.71h3.16v1.46a2.9,2.9,0,0,1,2.71-1.76Z"/><path class="cls-6" d="M458.16,237.48l2.67,1a5.16,5.16,0,0,1-5.16,3.72c-3.38,0-5.68-2.34-5.68-5.87s2.26-5.87,5.5-5.87,5.34,2.39,5.34,5.87a5.62,5.62,0,0,1,0,.71h-7.58c.17,1.76,1,2.47,2.3,2.47A2.62,2.62,0,0,0,458.16,237.48Zm-4.86-2.6h4.32c-.3-1.35-1.07-1.95-2.13-1.95A2.1,2.1,0,0,0,453.3,234.88Z"/><path class="cls-6" d="M466.5,226.82h10.71v3h-7.34v2.92h6.41v2.88h-6.41v3.31h7.34v3H466.5Z"/><path class="cls-6" d="M489.5,230.71l-4,5.48,4.11,5.68h-3.74l-2.24-3.1-2.26,3.1H477.7l4.1-5.63-4-5.53h3.75l2.12,2.95,2.15-2.95Z"/><path class="cls-6" d="M489.2,236.28a5.55,5.55,0,0,1,5.67-5.87,5.23,5.23,0,0,1,5.4,4l-2.82,1c-.47-1.59-1.29-2.21-2.58-2.21s-2.4,1-2.4,3.07,1.16,3.07,2.4,3.07,2.11-.62,2.58-2.21l2.82,1a5.23,5.23,0,0,1-5.4,4A5.55,5.55,0,0,1,489.2,236.28Z"/><path class="cls-6" d="M501.34,237.4v-6.69h3.18v6.5c0,1.5.78,2.14,1.81,2.14s1.81-.64,1.81-2.14v-6.5h3.18v6.69c0,3-2.15,4.75-5,4.75S501.34,240.37,501.34,237.4Z"/><path class="cls-6" d="M519.55,230.41v3.4h-1.23a2,2,0,0,0-2,2.26v5.8h-3.16V230.71h3.16v1.46a2.9,2.9,0,0,1,2.71-1.76Z"/><path class="cls-6" d="M520,238.39l2.52-.84a2.55,2.55,0,0,0,2.7,2.08c1.12,0,1.81-.32,1.81-.88s-.54-.79-1.78-1.09l-1.08-.26c-2.64-.65-3.78-1.72-3.78-3.55,0-2.06,1.8-3.42,4.62-3.42s4.62,1.42,4.9,3.61l-2.6.69A2.07,2.07,0,0,0,525,233c-1,0-1.66.36-1.66.84s.69.77,2,1.09l1.07.26c2.37.56,3.57,1.74,3.57,3.46,0,2.13-1.91,3.55-4.8,3.55C522.81,242.15,520.6,240.92,520,238.39Z"/><path class="cls-6" d="M531.18,228a2,2,0,0,1,4,0,2,2,0,0,1-4,0Zm.38,2.73h3.16v11.16h-3.16Z"/><path class="cls-6" d="M536.21,236.28a5.84,5.84,0,1,1,5.82,5.87A5.63,5.63,0,0,1,536.21,236.28Zm8.42,0c0-2-1.11-3.05-2.6-3.05s-2.56,1.07-2.56,3.05,1.1,3.07,2.56,3.07S544.63,238.26,544.63,236.28Z"/><path class="cls-6" d="M559.32,234.58v7.29h-3.16v-6.73c0-1.29-.74-2-1.66-2a1.94,1.94,0,0,0-2,2.17v6.54h-3.16V230.71h3.16v1.34a3.13,3.13,0,0,1,2.93-1.64A3.86,3.86,0,0,1,559.32,234.58Z"/><path class="cls-6" d="M560.56,238.39l2.51-.84a2.57,2.57,0,0,0,2.71,2.08c1.12,0,1.81-.32,1.81-.88s-.54-.79-1.78-1.09l-1.08-.26c-2.64-.65-3.78-1.72-3.78-3.55,0-2.06,1.8-3.42,4.62-3.42s4.62,1.42,4.9,3.61l-2.6.69a2.07,2.07,0,0,0-2.3-1.78c-1,0-1.66.36-1.66.84s.69.77,2,1.09l1.08.26c2.36.56,3.57,1.74,3.57,3.46,0,2.13-1.92,3.55-4.8,3.55C563.35,242.15,561.14,240.92,560.56,238.39Z"/><path class="cls-6" d="M352.21,246.36h3.18l4.3,5.85,4.19-5.85h3.19v15.05h-3.36v-9.76l-3.78,5.12h-.56l-3.81-5.12v9.76h-3.35Z"/><path class="cls-6" d="M379.1,254.38v7h-2.92v-1.07a3.87,3.87,0,0,1-3.23,1.35c-2.66,0-4.23-1.35-4.23-3.5s1.65-3.51,4.51-3.51a3.82,3.82,0,0,1,2.71.91v-.91c0-1.25-.66-1.91-2.06-1.91a2.33,2.33,0,0,0-2.28,1.63L369,253.26c.83-2.43,2.81-3.31,5-3.31C376.78,250,379.1,251.39,379.1,254.38ZM376,258.14c0-.81-.8-1.29-2-1.29s-2,.48-2,1.29.79,1.29,2,1.29S376,259,376,258.14Z"/><path class="cls-6" d="M390.9,254.12v7.29h-3.16v-6.73c0-1.29-.73-2-1.65-2a1.94,1.94,0,0,0-2,2.18v6.53H381V250.25h3.16v1.34A3.12,3.12,0,0,1,387,250,3.86,3.86,0,0,1,390.9,254.12Z"/><path class="cls-6" d="M402.64,254.38v7h-2.92v-1.07a3.87,3.87,0,0,1-3.23,1.35c-2.67,0-4.24-1.35-4.24-3.5s1.66-3.51,4.52-3.51a3.85,3.85,0,0,1,2.71.91v-.91c0-1.25-.67-1.91-2.07-1.91a2.32,2.32,0,0,0-2.27,1.63l-2.63-1.14a4.86,4.86,0,0,1,5-3.31C400.32,250,402.64,251.39,402.64,254.38Zm-3.1,3.76c0-.81-.79-1.29-2-1.29s-2,.48-2,1.29.8,1.29,2,1.29S399.54,259,399.54,258.14Z"/><path class="cls-6" d="M403.78,263a2.41,2.41,0,0,1,1.78-2.21,2.38,2.38,0,0,1-1.59-2.2,2.41,2.41,0,0,1,2-2.3,2.81,2.81,0,0,1-1.38-2.49c0-2.39,2.15-3.81,5.1-3.81a11.27,11.27,0,0,0,5.12-.75l.92,2.36a10.61,10.61,0,0,1-2,.61,2.2,2.2,0,0,1,1,2c0,2.05-2.13,3.29-5.23,3.29-1.16,0-2.6-.06-2.6.67s1.81.6,2.86.6h.65c3.48,0,5.31,1.36,5.31,3.38s-1.81,3.54-6,3.54C405.35,265.6,403.78,264.29,403.78,263Zm8.49-.58c0-.62-.67-1-2.54-1s-2.56.35-2.56,1,.69,1,2.56,1S412.27,263,412.27,262.38Zm-.62-8.64c0-.8-.61-1.36-1.94-1.36s-2,.56-2,1.36.65,1.31,2,1.31S411.65,254.53,411.65,253.74Z"/><path class="cls-6" d="M424.33,257,427,258a5.15,5.15,0,0,1-5.16,3.72c-3.37,0-5.67-2.34-5.67-5.87s2.25-5.87,5.5-5.87,5.33,2.39,5.33,5.87c0,.22,0,.5,0,.71h-7.59c.17,1.76,1,2.47,2.3,2.47A2.62,2.62,0,0,0,424.33,257Zm-4.86-2.61h4.32a2.12,2.12,0,0,0-2.13-1.95A2.1,2.1,0,0,0,419.47,254.42Z"/><path class="cls-6" d="M434.92,250v3.4H433.7a2,2,0,0,0-2,2.26v5.8h-3.16V250.25h3.16v1.46a2.89,2.89,0,0,1,2.71-1.76Z"/><circle class="cls-1" cx="261.55" cy="303.34" r="4.56"/><circle cx="184.18" cy="303.34" r="2.61"/><line class="cls-2" x1="184.18" y1="303.34" x2="256.99" y2="303.34"/><polyline class="cls-3" points="253.08 329.74 261.55 320.62 270.02 329.74"/><polyline class="cls-4" points="253.08 337.63 261.55 328.51 270.02 337.63"/><polyline class="cls-5" points="253.08 345.52 261.55 336.4 270.02 345.52"/><path class="cls-6" d="M0,292.66l2.88-1a3.56,3.56,0,0,0,3.53,2.75c1.67,0,2.71-.6,2.71-1.5s-.91-1.25-2.71-1.74L5,290.77c-3-.86-4.47-2.28-4.47-4.64,0-2.61,2.32-4.43,5.74-4.43,3.09,0,5.63,1.57,6.13,4.49l-3,.77A2.91,2.91,0,0,0,6.3,284.6C4.79,284.6,4,285.14,4,286c0,1,1,1.36,2.47,1.75l1.42.36c3.14.8,4.64,2.26,4.64,4.6,0,2.8-2.3,4.65-6.08,4.65C3.46,297.31.84,296,0,292.66Z"/><path class="cls-6" d="M24,289.74V297H20.85V290.3c0-1.29-.73-2-1.65-2a1.93,1.93,0,0,0-2,2.17V297H14.06V282h3.16v5.22a3.12,3.12,0,0,1,2.92-1.63A3.85,3.85,0,0,1,24,289.74Z"/><path class="cls-6" d="M25.39,291.44a5.63,5.63,0,0,1,5.82-5.87,5.87,5.87,0,0,1,0,11.74A5.63,5.63,0,0,1,25.39,291.44Zm8.42,0c0-2-1.12-3.06-2.6-3.06s-2.56,1.08-2.56,3.06,1.1,3.07,2.56,3.07S33.81,293.41,33.81,291.44Z"/><path class="cls-6" d="M45,285.57V289H43.72a2,2,0,0,0-2,2.26V297H38.54V285.87H41.7v1.46a2.88,2.88,0,0,1,2.71-1.76Z"/><path class="cls-6" d="M53.59,292.64l2.66.95a5.15,5.15,0,0,1-5.16,3.72c-3.37,0-5.67-2.35-5.67-5.87s2.26-5.87,5.5-5.87,5.33,2.38,5.33,5.87c0,.21,0,.49,0,.71H48.64c.18,1.76,1,2.47,2.3,2.47A2.62,2.62,0,0,0,53.59,292.64ZM48.73,290h4.32c-.3-1.36-1.07-2-2.13-2A2.1,2.1,0,0,0,48.73,290Z"/><path class="cls-6" d="M61.93,282h10.7v3H65.3v2.93h6.41v2.88H65.3v3.31h7.33v3H61.93Z"/><path class="cls-6" d="M84.93,285.87l-4,5.48L85,297H81.29l-2.23-3.1L76.8,297H73.12l4.11-5.64-4-5.52H77l2.13,2.94,2.15-2.94Z"/><path class="cls-6" d="M84.62,291.44a5.56,5.56,0,0,1,5.68-5.87,5.23,5.23,0,0,1,5.4,4l-2.82,1c-.47-1.59-1.29-2.22-2.58-2.22s-2.41,1-2.41,3.08,1.16,3.07,2.41,3.07,2.11-.62,2.58-2.21l2.82,1a5.24,5.24,0,0,1-5.4,4A5.56,5.56,0,0,1,84.62,291.44Z"/><path class="cls-6" d="M96.77,292.55v-6.68H100v6.49c0,1.51.78,2.15,1.81,2.15s1.8-.64,1.8-2.15v-6.49h3.19v6.68c0,3-2.15,4.76-5,4.76S96.77,295.52,96.77,292.55Z"/><path class="cls-6" d="M115,285.57V289h-1.23a2,2,0,0,0-2,2.26V297h-3.16V285.87h3.16v1.46a2.88,2.88,0,0,1,2.71-1.76Z"/><path class="cls-6" d="M115.45,293.54l2.51-.83a2.57,2.57,0,0,0,2.71,2.08c1.12,0,1.81-.32,1.81-.88s-.54-.8-1.79-1.1l-1.07-.26c-2.64-.64-3.78-1.72-3.78-3.54,0-2.07,1.8-3.42,4.62-3.42s4.62,1.42,4.9,3.61l-2.6.69a2.08,2.08,0,0,0-2.3-1.79c-1,0-1.66.37-1.66.84s.69.78,2,1.1l1.08.26c2.36.56,3.57,1.74,3.57,3.46,0,2.13-1.92,3.55-4.8,3.55C118.24,297.31,116,296.08,115.45,293.54Z"/><path class="cls-6" d="M126.6,283.14a2,2,0,0,1,4,0,2,2,0,0,1-4,0Zm.39,2.73h3.16V297H127Z"/><path class="cls-6" d="M131.63,291.44a5.84,5.84,0,1,1,5.83,5.87A5.64,5.64,0,0,1,131.63,291.44Zm8.43,0c0-2-1.12-3.06-2.6-3.06s-2.56,1.08-2.56,3.06,1.1,3.07,2.56,3.07S140.06,293.41,140.06,291.44Z"/><path class="cls-6" d="M154.74,289.74V297h-3.16V290.3c0-1.29-.73-2-1.65-2a1.93,1.93,0,0,0-2,2.17V297h-3.16V285.87H148v1.33a3.12,3.12,0,0,1,2.92-1.63A3.85,3.85,0,0,1,154.74,289.74Z"/><path class="cls-6" d="M156,293.54l2.51-.83a2.57,2.57,0,0,0,2.71,2.08c1.12,0,1.81-.32,1.81-.88s-.54-.8-1.79-1.1l-1.07-.26c-2.65-.64-3.79-1.72-3.79-3.54,0-2.07,1.81-3.42,4.63-3.42s4.62,1.42,4.9,3.61l-2.6.69a2.08,2.08,0,0,0-2.3-1.79c-1,0-1.66.37-1.66.84s.69.78,2,1.1l1.08.26c2.36.56,3.57,1.74,3.57,3.46,0,2.13-1.92,3.55-4.8,3.55C158.78,297.31,156.57,296.08,156,293.54Z"/><path class="cls-6" d="M118.91,312.2l2.88-1a3.56,3.56,0,0,0,3.53,2.75c1.67,0,2.7-.6,2.7-1.5s-.9-1.25-2.7-1.74l-1.4-.39c-3.06-.86-4.47-2.28-4.47-4.64,0-2.6,2.32-4.43,5.74-4.43,3.09,0,5.63,1.57,6.12,4.49l-3,.78a2.91,2.91,0,0,0-3.14-2.37c-1.51,0-2.35.54-2.35,1.36,0,1,1,1.35,2.48,1.74l1.42.36c3.14.8,4.64,2.26,4.64,4.6,0,2.8-2.3,4.65-6.08,4.65C122.37,316.85,119.75,315.54,118.91,312.2Z"/><path class="cls-6" d="M134.21,307.88h-2v-2.47h2v-2l3.16-1.66v3.7h2.45v2.47h-2.45v4.43c0,1,.41,1.55,1.25,1.55h1.2v2.71h-1.61c-2.51,0-4-1.55-4-4.13Z"/><path class="cls-6" d="M151.05,309.54v7h-2.93v-1.08a3.82,3.82,0,0,1-3.22,1.36c-2.67,0-4.24-1.36-4.24-3.51s1.66-3.5,4.52-3.5a3.9,3.9,0,0,1,2.71.9v-.9c0-1.25-.67-1.92-2.07-1.92a2.34,2.34,0,0,0-2.28,1.64l-2.62-1.14a4.86,4.86,0,0,1,5-3.31C148.72,305.11,151.05,306.55,151.05,309.54ZM148,313.3c0-.82-.8-1.29-2-1.29s-2,.47-2,1.29.79,1.29,2,1.29S148,314.12,148,313.3Z"/><path class="cls-6" d="M153.77,305.39c0-2.6,1.49-4.15,4-4.15h1.62V304h-1.21c-.82,0-1.22.49-1.25,1.46h1.87v2.47h-1.87v8.69h-3.16v-8.69H152.1v-2.47h1.67ZM165.56,304c-.82,0-1.23.49-1.25,1.46h2.45v2.47h-2.45v8.69h-3.16v-8.69h-1.46v-2.47h1.46v0c0-2.6,1.48-4.15,4-4.15h1.61V304Z"/><circle class="cls-1" cx="261.55" cy="413.65" r="4.56"/><circle cx="184.18" cy="412.19" r="2.61"/><line class="cls-2" x1="184.18" y1="412.19" x2="256.99" y2="412.19"/><path class="cls-6" d="M5.44,415.65l-1.31,3.64H.62l5.87-15.05H9.78l5.89,15.05H12.08l-1.31-3.64Zm1-2.7H9.8l-1.7-4.69Z"/><path class="cls-6" d="M15.71,415.8l2.52-.83a2.56,2.56,0,0,0,2.71,2.08c1.11,0,1.8-.32,1.8-.88s-.53-.79-1.78-1.1l-1.08-.25c-2.64-.65-3.78-1.72-3.78-3.55,0-2.06,1.81-3.42,4.62-3.42s4.62,1.42,4.9,3.61l-2.6.69a2.07,2.07,0,0,0-2.3-1.78c-1,0-1.65.36-1.65.83s.68.78,2,1.1l1.07.26c2.37.56,3.57,1.74,3.57,3.46,0,2.13-1.91,3.55-4.79,3.55C18.51,419.57,16.29,418.34,15.71,415.8Z"/><path class="cls-6" d="M26.65,415.8l2.52-.83a2.56,2.56,0,0,0,2.71,2.08c1.12,0,1.8-.32,1.8-.88s-.53-.79-1.78-1.1l-1.08-.25c-2.64-.65-3.78-1.72-3.78-3.55,0-2.06,1.81-3.42,4.62-3.42s4.63,1.42,4.9,3.61l-2.6.69a2.06,2.06,0,0,0-2.3-1.78c-1,0-1.65.36-1.65.83s.68.78,2,1.1l1.07.26c2.37.56,3.57,1.74,3.57,3.46,0,2.13-1.91,3.55-4.79,3.55C29.45,419.57,27.23,418.34,26.65,415.8Z"/><path class="cls-6" d="M39.12,410.6h-2v-2.47h2v-2l3.16-1.66v3.7h2.45v2.47H42.28V415c0,1,.41,1.55,1.25,1.55h1.2v2.71H43.12c-2.52,0-4-1.55-4-4.13Z"/><path class="cls-6" d="M45.74,417.46a2.06,2.06,0,1,1,2.06,2.11A2,2,0,0,1,45.74,417.46Z"/><path class="cls-6" d="M67.22,415c0,2.75-1.89,4.26-5.55,4.26H55.09V404.24H61.2c3.35,0,5.18,1.42,5.18,4.1a3.35,3.35,0,0,1-1.87,3A3.87,3.87,0,0,1,67.22,415Zm-8.75-7.93v3.14h2.4c1.21,0,2-.35,2-1.55s-.84-1.59-2-1.59Zm0,5.78v3.55h3.05c1.38,0,2.21-.52,2.21-1.76s-.83-1.79-2.21-1.79Z"/><path class="cls-6" d="M68.27,405.4a2,2,0,0,1,4,0,2,2,0,0,1-4,0Zm.38,2.73h3.16v11.16H68.65Z"/><path class="cls-6" d="M73.77,404.24H77v8.81l3.76-4.92h3.87l-4.32,5.27,4.35,5.89H80.74L77,413.76v5.53H73.77Z"/><path class="cls-6" d="M92.3,414.9l2.67,1a5.16,5.16,0,0,1-5.16,3.72c-3.38,0-5.68-2.35-5.68-5.87s2.26-5.87,5.5-5.87S95,410.21,95,413.7a5.7,5.7,0,0,1,0,.71H87.36c.17,1.76,1,2.47,2.3,2.47A2.62,2.62,0,0,0,92.3,414.9Zm-4.86-2.6h4.32c-.3-1.35-1.07-2-2.13-2A2.1,2.1,0,0,0,87.44,412.3Z"/><path class="cls-6" d="M110.79,419.29H100.64V404.24H104v12.08h6.78Z"/><path class="cls-6" d="M119.53,414.9l2.67,1a5.16,5.16,0,0,1-5.16,3.72c-3.38,0-5.68-2.35-5.68-5.87s2.26-5.87,5.51-5.87,5.33,2.38,5.33,5.87c0,.21,0,.49,0,.71h-7.59c.17,1.76,1,2.47,2.3,2.47A2.6,2.6,0,0,0,119.53,414.9Zm-4.85-2.6H119a2.13,2.13,0,0,0-2.13-2A2.1,2.1,0,0,0,114.68,412.3Z"/><path class="cls-6" d="M133.61,412.26v7h-2.92v-1.08a3.84,3.84,0,0,1-3.23,1.36c-2.66,0-4.23-1.36-4.23-3.51s1.65-3.5,4.51-3.5a3.86,3.86,0,0,1,2.71.9v-.9c0-1.25-.66-1.91-2.06-1.91a2.33,2.33,0,0,0-2.28,1.63l-2.62-1.14a4.86,4.86,0,0,1,5-3.31C131.29,407.83,133.61,409.27,133.61,412.26ZM130.52,416c0-.82-.8-1.29-2-1.29s-2,.47-2,1.29.79,1.29,2,1.29S130.52,416.84,130.52,416Z"/><path class="cls-6" d="M143.24,404.24h3.16v15.05h-3.16v-1.42a3.75,3.75,0,0,1-3.29,1.7c-2.86,0-4.94-2.56-4.94-5.87s2.08-5.87,4.94-5.87a3.72,3.72,0,0,1,3.29,1.72Zm0,9.46c0-2-1-3.05-2.52-3.05s-2.51,1.07-2.51,3.05,1,3.07,2.51,3.07S143.29,415.68,143.29,413.7Z"/><path class="cls-6" d="M156.08,414.9l2.66,1a5.16,5.16,0,0,1-5.16,3.72c-3.37,0-5.67-2.35-5.67-5.87s2.25-5.87,5.5-5.87,5.33,2.38,5.33,5.87c0,.21,0,.49,0,.71h-7.59c.17,1.76,1,2.47,2.3,2.47A2.62,2.62,0,0,0,156.08,414.9Zm-4.86-2.6h4.32a2.13,2.13,0,0,0-2.13-2A2.1,2.1,0,0,0,151.22,412.3Z"/><path class="cls-6" d="M166.67,407.83v3.4h-1.22a2,2,0,0,0-2,2.25v5.81h-3.16V408.13h3.16v1.46a2.87,2.87,0,0,1,2.7-1.76Z"/><circle class="cls-1" cx="261.55" cy="358.5" r="4.56"/><circle cx="338.92" cy="358.5" r="2.61"/><line class="cls-2" x1="338.92" y1="358.5" x2="266.11" y2="358.5"/><polyline class="cls-3" points="253.08 384.9 261.55 375.78 270.02 384.9"/><polyline class="cls-4" points="253.08 392.79 261.55 383.67 270.02 392.79"/><polyline class="cls-5" points="253.08 400.68 261.55 391.56 270.02 400.68"/><path class="cls-6" d="M364.34,360.17c0,2.76-1.9,4.26-5.55,4.26h-6.58V349.38h6.11c3.35,0,5.18,1.42,5.18,4.11a3.36,3.36,0,0,1-1.87,3A3.86,3.86,0,0,1,364.34,360.17Zm-8.75-7.93v3.14H358c1.21,0,2-.34,2-1.55s-.84-1.59-2-1.59Zm0,5.78v3.55h3.05c1.38,0,2.21-.51,2.21-1.76S360,358,358.64,358Z"/><path class="cls-6" d="M365.39,350.54a2,2,0,0,1,4,0,2,2,0,0,1-4,0Zm.38,2.73h3.16v11.16h-3.16Z"/><path class="cls-6" d="M370.89,349.38h3.18v8.82l3.76-4.93h3.87l-4.32,5.27,4.35,5.89h-3.88l-3.78-5.52v5.52h-3.18Z"/><path class="cls-6" d="M389.42,360.05l2.67.94a5.16,5.16,0,0,1-5.16,3.72c-3.38,0-5.68-2.34-5.68-5.87s2.26-5.87,5.5-5.87,5.34,2.39,5.34,5.87a5.54,5.54,0,0,1,0,.71h-7.58c.17,1.76,1,2.47,2.29,2.47A2.62,2.62,0,0,0,389.42,360.05Zm-4.86-2.61h4.32c-.3-1.35-1.07-1.95-2.13-1.95A2.1,2.1,0,0,0,384.56,357.44Z"/><path class="cls-6" d="M407.91,364.43H397.76V349.38h3.37v12.08h6.78Z"/><path class="cls-6" d="M416.65,360.05l2.67.94a5.16,5.16,0,0,1-5.16,3.72c-3.38,0-5.68-2.34-5.68-5.87S410.74,353,414,353s5.33,2.39,5.33,5.87c0,.22,0,.5,0,.71h-7.59c.17,1.76,1,2.47,2.3,2.47A2.6,2.6,0,0,0,416.65,360.05Zm-4.86-2.61h4.33c-.31-1.35-1.08-1.95-2.13-1.95A2.1,2.1,0,0,0,411.79,357.44Z"/><path class="cls-6" d="M430.73,357.4v7h-2.92v-1.07a3.87,3.87,0,0,1-3.23,1.35c-2.66,0-4.23-1.35-4.23-3.5s1.65-3.51,4.51-3.51a3.88,3.88,0,0,1,2.71.9v-.9c0-1.25-.66-1.91-2.06-1.91a2.33,2.33,0,0,0-2.28,1.63l-2.62-1.14c.83-2.43,2.81-3.31,5-3.31C428.41,353,430.73,354.41,430.73,357.4Zm-3.09,3.76c0-.81-.8-1.29-2-1.29s-2,.48-2,1.29.79,1.29,2,1.29S427.64,362,427.64,361.16Z"/><path class="cls-6" d="M440.36,349.38h3.16v15.05h-3.16V363a3.75,3.75,0,0,1-3.29,1.7c-2.86,0-4.94-2.56-4.94-5.87s2.08-5.87,4.94-5.87a3.72,3.72,0,0,1,3.29,1.72Zm0,9.46c0-2-1-3-2.51-3s-2.52,1.07-2.52,3,1,3.08,2.52,3.08S440.4,360.82,440.4,358.84Z"/><path class="cls-6" d="M453.19,360.05l2.67.94a5.16,5.16,0,0,1-5.16,3.72c-3.38,0-5.68-2.34-5.68-5.87s2.26-5.87,5.51-5.87,5.33,2.39,5.33,5.87c0,.22,0,.5,0,.71h-7.59c.17,1.76,1,2.47,2.3,2.47A2.6,2.6,0,0,0,453.19,360.05Zm-4.85-2.61h4.32a2.12,2.12,0,0,0-2.13-1.95A2.09,2.09,0,0,0,448.34,357.44Z"/><path class="cls-6" d="M463.79,353v3.4h-1.22a2,2,0,0,0-2,2.26v5.8h-3.16V353.27h3.16v1.46a2.91,2.91,0,0,1,2.71-1.76Z"/><path class="cls-7" d="M261.55,0c-3.66,0-17.61,17.87-17.61,32.61V165.69c0,5.75,9.24,7.77,17.61,7.77s17.62-2,17.62-7.77V32.61C279.17,17.87,265.22,0,261.55,0Zm13.74,161.49c0,6.28-10.54,6.28-13.74,6.28s-13.73,0-13.73-6.28V37.74a16.53,16.53,0,0,1,.09-1.82c.79-8.43,6.66-21.71,13.64-21.71s12.61,12.7,13.6,21.16a22.22,22.22,0,0,1,.14,2.37Z"/><path class="cls-7" d="M251.18,155h1.57l2.11,2.88,2.06-2.88h1.56v7.4h-1.65v-4.8L255,160.07h-.28l-1.87-2.52v4.8h-1.65Z"/><path class="cls-7" d="M259.18,160.2l1.42-.49a1.74,1.74,0,0,0,1.73,1.35c.82,0,1.33-.3,1.33-.74s-.45-.61-1.33-.86l-.69-.19c-1.5-.42-2.2-1.12-2.2-2.28s1.15-2.17,2.82-2.17a2.78,2.78,0,0,1,3,2.2l-1.45.38a1.43,1.43,0,0,0-1.55-1.16c-.73,0-1.15.27-1.15.67s.5.66,1.22.85l.7.18c1.54.39,2.28,1.11,2.28,2.26,0,1.37-1.13,2.28-3,2.28A3,3,0,0,1,259.18,160.2Z"/><path class="cls-7" d="M265.84,158.65a3.61,3.61,0,0,1,3.73-3.83,3.27,3.27,0,0,1,3.34,2.4l-1.51.54a1.93,1.93,0,0,0-1.83-1.44c-1.17,0-2,.87-2,2.33s.83,2.33,2,2.33a1.93,1.93,0,0,0,1.83-1.44l1.51.54a3.27,3.27,0,0,1-3.34,2.4A3.61,3.61,0,0,1,265.84,158.65Z"/><path class="cls-7" d="M254.84,50.73V67.29h13.43V50.73Zm11.28,14.5H257v-5h9.13ZM257,58.05V52.79h9.13v5.26Z"/><path class="cls-7" d="M254.84,91v16.56h13.43V91Zm11.28,14.5H257v-5h9.13ZM257,98.31V93.05h9.13v5.26Z"/><path class="cls-7" d="M254.84,132v13.43h13.43V132Zm11.28,11.28H257v-9.13h9.13Z"/><path class="cls-7" d="M261.55,112.1a5.5,5.5,0,0,0-5.48,5.49V122a5.49,5.49,0,1,0,11,0v-4.44A5.44,5.44,0,0,0,261.55,112.1Zm3.31,5.49V122a3.31,3.31,0,1,1-6.61,0v-4.44a3.31,3.31,0,0,1,3.3-3.31A3.28,3.28,0,0,1,264.86,117.59Z"/><path class="cls-7" d="M261.55,71a5.49,5.49,0,0,0-5.48,5.49v4.43a5.49,5.49,0,1,0,11,0V76.51A5.43,5.43,0,0,0,261.55,71Zm3.31,5.49v4.43a3.31,3.31,0,1,1-6.61,0V76.51a3.31,3.31,0,0,1,3.3-3.32A3.28,3.28,0,0,1,264.86,76.51Z"/><path class="cls-7" d="M275.87,37.75v-.06a21.16,21.16,0,0,0-.13-2.27,33.82,33.82,0,0,0-13.93-3.1,30.44,30.44,0,0,0-14,3.65c-.05.56-.07,1.13-.07,1.72v.79l.82-.54a26.06,26.06,0,0,1,7.1-2.71l.73-.17-.37.65a6.42,6.42,0,0,0-.9,3.27,6.67,6.67,0,1,0,13.33,0,6.61,6.61,0,0,0-.93-3.32l-.37-.64.71.15A38,38,0,0,1,275.87,37.75Zm-14.06,5.83a4.58,4.58,0,0,1-1.08-9l0,0h0l1,0,1,0h0l0,0a4.59,4.59,0,0,1-1.08,9Z"/></g></g></svg>